# xmcd
#
# Track frame offsets:
#	150
#	19500
#	39844
#	67081
#	77665
#	98870
#	132718
#	154438
#	175031
#	194724
#	213833
#	236688
#	257201
#
# Disc length: 3641 seconds
#
# Revision: 0
# Processed by: cddbd v1.5.1PL0 Copyright (c) Steve Scherf et al.
# Submitted via: EasyCDDAExtractor 8.0.2.1
#
DISCID=b60e370d
DTITLE=JP Stingray - Can't Quit Old Habits
DYEAR=2001
DGENRE=Blues
TTITLE0=Leave My Girl Alone
TTITLE1=Behind Closed Doors
TTITLE2=Trying Ain't Enough
TTITLE3=JP's Loop
TTITLE4=Look My Baby Running
TTITLE5=Dark Sky's Falling
TTITLE6=Looking For love
TTITLE7=Evil Hearted Woman
TTITLE8=Devil Inside
TTITLE9=Helpless man
TTITLE10=Can't Stand The Heat
TTITLE11=Ain't The Same Man
TTITLE12=Runaway Woman
EXTD=
EXTT0=
EXTT1=
EXTT2=
EXTT3=
EXTT4=
EXTT5=
EXTT6=
EXTT7=
EXTT8=
EXTT9=
EXTT10=
EXTT11=
EXTT12=
PLAYORDER=
